<?xml version="1.0" encoding="UTF-8"?>
<!DOCTYPE svg PUBLIC "-//W3C//DTD SVG 1.1//EN" "http://www.w3.org/Graphics/SVG/1.1/DTD/svg11.dtd">
<!-- Creator: CorelDRAW 2020 (64-Bit) -->
<svg xmlns="http://www.w3.org/2000/svg" xml:space="preserve" width="8.26772in" height="11.6929in" version="1.1" style="shape-rendering:geometricPrecision; text-rendering:geometricPrecision; image-rendering:optimizeQuality; fill-rule:evenodd; clip-rule:evenodd"
viewBox="0 0 8267.72 11692.91"
 xmlns:xlink="http://www.w3.org/1999/xlink"
 xmlns:xodm="http://www.corel.com/coreldraw/odm/2003">
 <defs>
  <style type="text/css">
   <![CDATA[
    .fil0 {fill:black}
    .fil1 {fill:black;fill-rule:nonzero}
   ]]>
  </style>
 </defs>
 <g id="Layer_x0020_1">
  <metadata id="CorelCorpID_0Corel-Layer"/>
  <path class="fil0" d="M4133.86 258.18c1793.84,0 3248.03,1454.19 3248.03,3248.03 0,1793.84 -1454.19,3248.03 -3248.03,3248.03 -1793.84,0 -3248.03,-1454.19 -3248.03,-3248.03 0,-1793.84 1454.19,-3248.03 3248.03,-3248.03zm0 137.8c1717.74,0 3110.24,1392.5 3110.24,3110.24 0,1717.74 -1392.5,3110.24 -3110.24,3110.24 -1717.74,0 -3110.24,-1392.5 -3110.24,-3110.24 0,-1717.74 1392.5,-3110.24 3110.24,-3110.24z"/>
  <path class="fil1" d="M3482.13 1542.91c-25.12,0 -37.73,-10.19 -37.73,-30.56 0,-20.37 12.61,-30.56 37.73,-30.56l318.4 0c25.11,0 37.61,10.07 37.61,30.33 0,20.48 -12.61,30.79 -37.73,30.79l-126.15 0 0 387.38c0,10.99 -2.89,20.14 -8.57,27.08 -5.79,7.06 -13.89,10.53 -24.42,10.53 -10.53,0 -18.63,-3.47 -24.42,-10.3 -5.67,-6.94 -8.56,-16.09 -8.56,-27.31l0 -387.38 -126.16 0zm448.84 391.08l0 -417.94c0,-9.72 2.89,-17.82 8.68,-24.42 5.79,-6.59 13.31,-9.84 22.57,-9.84 9.26,0 16.78,3.24 22.57,9.84 5.78,6.6 8.68,14.7 8.68,24.42l0 152.55c5.21,-14.93 17.36,-27.89 36.57,-38.66 19.21,-10.76 39.7,-16.2 61.34,-16.2 87.5,0 131.25,44.68 131.25,134.03l0 186.22c0,9.72 -2.89,17.83 -8.68,24.19 -5.79,6.48 -13.31,9.72 -22.57,9.72 -9.26,0 -16.78,-3.24 -22.57,-9.61 -5.78,-6.48 -8.68,-14.58 -8.68,-24.31l0 -172.22c0,-32.75 -5.09,-56.37 -15.28,-70.83 -10.19,-14.47 -28.01,-21.65 -53.47,-21.65 -30.56,0 -54.4,12.39 -71.87,37.15 -17.36,24.65 -26.04,57.06 -26.04,97.11l0 130.44c0,9.72 -2.89,17.83 -8.68,24.31 -5.79,6.37 -13.31,9.61 -22.57,9.61 -9.26,0 -16.78,-3.24 -22.57,-9.61 -5.79,-6.48 -8.68,-14.58 -8.68,-24.31zm450.46 -10.65c-31.02,-34.37 -46.53,-77.31 -46.53,-129.05 0,-51.74 15.51,-94.79 46.64,-129.05 31.02,-34.37 72.92,-51.5 125.58,-51.5 48.96,0 89.12,16.32 120.37,48.84 31.37,32.64 46.99,73.15 46.99,121.76 0,11.11 -3.13,19.67 -9.49,25.81 -6.37,6.13 -14.81,9.14 -25.46,9.14l-240.04 0c3.59,27.78 15.05,51.39 34.26,70.83 19.21,19.44 43.63,29.17 73.26,29.17 44.91,0 79.63,-13.89 104.05,-41.78 7.06,-7.76 15.17,-11.69 24.42,-11.69 9.26,0 16.67,3.36 22.22,9.95 5.56,6.6 8.33,14.12 8.33,22.45 0,8.33 -3.7,16.2 -11.22,23.61 -36.81,35.3 -85.76,53.01 -146.76,53.01 -0.46,0 -0.81,0 -1.04,0 -52.66,0 -94.56,-17.13 -125.58,-51.5zm18.06 -159.61l210.19 0c-6.94,-27.78 -18.87,-50.46 -35.76,-68.06 -16.78,-17.59 -39.12,-26.39 -66.9,-26.39 -28.24,0 -52.09,9.15 -71.53,27.43 -19.44,18.29 -31.48,40.63 -36,67.02zm-2007.29 983.81c0,-143.52 34.96,-262.27 104.63,-356.94 69.91,-94.44 168.29,-141.67 295.14,-141.67 63.66,0 118.98,8.8 165.74,26.39 46.76,17.59 93.06,48.84 138.66,93.75 16.67,16.67 25,34.72 25,53.93 0,19.44 -6.71,35.42 -20.37,48.38 -13.43,12.73 -30.09,19.22 -49.54,19.22 -16.67,0 -31.71,-7.18 -45.37,-21.53 -58.33,-64.81 -129.63,-97.45 -214.12,-97.91 -61.8,0 -113.19,18.52 -153.93,55.56 -40.51,37.04 -68.98,82.87 -85.42,137.04 -16.2,54.17 -24.31,115.51 -24.31,183.8 0,108.57 21.53,198.84 64.81,271.07 43.06,71.99 109.49,108.1 199.07,108.1 42.59,0 80.79,-6.48 114.81,-19.21 33.8,-12.96 65.05,-38.43 93.52,-76.39l0 -194.68 -177.08 0c-47.69,0 -71.53,-20.37 -71.53,-61.11 0,-40.74 23.84,-61.11 71.76,-61.11l235.19 0c21.07,0 38.89,7.17 53.47,21.3 14.35,14.35 21.53,32.18 21.53,53.93l0 370.37c0,21.99 -5.09,40.28 -15.28,54.17 -10.19,14.12 -25.23,21.06 -45.6,21.06 -37.04,0 -61.11,-18.98 -72.45,-56.71 -52.09,46.99 -121.07,70.6 -206.94,70.6 -127.08,0 -225.69,-47.22 -296.06,-141.44 -70.14,-94.44 -105.33,-214.35 -105.33,-359.95zm998.15 412.27l0 -821.76c0,-22.22 5.79,-40.28 17.36,-54.17 11.34,-14.12 27.78,-21.07 49.31,-21.07 21.53,0 37.96,6.94 49.3,21.07 11.57,13.89 17.36,31.94 17.36,54.17l0 774.77 432.41 0c46.99,0 70.37,20.37 70.37,61.11 0,40.74 -23.38,61.11 -70.37,61.11l-490.74 0c-21.06,0 -38.89,-7.18 -53.24,-21.3 -14.58,-14.35 -21.76,-32.18 -21.76,-53.94zm823.84 -50.23c-67.13,-93.06 -100.7,-213.19 -100.7,-360.41 0,-146.99 33.57,-267.36 100.7,-360.42 66.9,-93.29 162.96,-139.81 287.96,-139.81 124.77,0 220.6,46.53 287.5,139.81 66.9,93.06 100.23,213.43 100.23,360.42 0,147.22 -33.33,267.36 -100.23,360.41 -66.9,92.83 -162.73,139.35 -287.5,139.35 -125,0 -221.06,-46.53 -287.96,-139.35zm99.54 -634.95c-42.82,68.98 -64.12,160.41 -64.12,274.3 0,113.89 21.3,205.32 64.12,274.31 42.59,68.98 105.56,103.47 188.66,103.47 83.1,0 146.06,-34.49 188.66,-103.47 42.82,-68.98 64.12,-160.42 64.12,-274.31 0,-113.89 -21.3,-205.32 -64.12,-274.3 -42.59,-68.98 -105.56,-103.47 -188.66,-103.47 -83.1,0 -146.07,34.49 -188.66,103.47zm654.63 -146.3c0,-43.28 19.21,-65.04 57.41,-65.51 34.72,0 54.86,16.9 60.42,50.93l69.21 588.66 135.65 -479.17c8.57,-30.32 29.17,-45.6 61.81,-45.6 32.64,0 53.24,17.13 62.04,51.39l134.95 476.15 69.68 -593.98c5.32,-32.17 26.62,-48.38 63.66,-48.38 40.51,0 61.11,21.53 61.57,64.58 0,10.19 -1.16,19.68 -3.47,28.47l-103.94 827.31c-9.95,34.49 -28.93,51.85 -57.41,51.85 -25.93,0 -44.68,-16.2 -56.02,-48.38l-167.82 -564.58 -166.9 560.88c-11.34,34.72 -30.09,52.08 -56.02,52.08 -28.93,0 -47.92,-16.67 -57.41,-50.23l-104.63 -827.31c-1.85,-9.03 -2.78,-18.75 -2.78,-29.17zm-3299.3 2253.8l0 -821.76c0,-22.22 5.79,-40.28 17.36,-54.17 11.34,-14.12 27.78,-21.07 49.31,-21.07 21.53,0 37.96,6.94 49.3,21.07 11.57,13.89 17.36,31.94 17.36,54.17l0 774.77 432.41 0c46.99,0 70.37,20.37 70.37,61.11 0,40.74 -23.38,61.11 -70.37,61.11l-490.74 0c-21.06,0 -38.89,-7.18 -53.24,-21.3 -14.58,-14.35 -21.76,-32.18 -21.76,-53.94zm784.26 0l0 -821.76c0,-21.3 7.18,-39.12 21.3,-53.47 14.35,-14.58 31.94,-21.76 53.24,-21.76l490.51 0c48.38,0 72.45,20.37 72.45,61.34 0,40.51 -24.07,60.88 -72.45,60.88l-433.1 0 0 288.89 319.21 0c46.53,0 69.68,20.6 69.68,61.81 0,40.28 -23.15,60.41 -69.68,60.41l-319.21 0 0 316.67 455.09 0c49.3,0 74.07,20.14 74.07,60.41 0,41.2 -24.54,61.81 -73.84,61.81l-512.73 0c-21.3,0 -38.89,-7.18 -53.24,-21.3 -14.12,-14.35 -21.3,-32.18 -21.3,-53.94zm869.44 -774.77c-50.23,0 -75.46,-20.37 -75.46,-61.11 0,-40.74 25.23,-61.11 75.46,-61.11l636.8 0c50.23,0 75.23,20.14 75.23,60.65 0,40.97 -25.23,61.57 -75.46,61.57l-252.31 0 0 774.77c0,21.99 -5.79,40.28 -17.13,54.17 -11.57,14.12 -27.78,21.06 -48.84,21.06 -21.06,0 -37.27,-6.94 -48.84,-20.6 -11.34,-13.89 -17.13,-32.18 -17.13,-54.63l0 -774.77 -252.31 0zm860.65 0c-50.23,0 -75.46,-20.37 -75.46,-61.11 0,-40.74 25.23,-61.11 75.46,-61.11l636.8 0c50.23,0 75.23,20.14 75.23,60.65 0,40.97 -25.23,61.57 -75.46,61.57l-252.31 0 0 774.77c0,21.99 -5.79,40.28 -17.13,54.17 -11.57,14.12 -27.78,21.06 -48.84,21.06 -21.06,0 -37.27,-6.94 -48.84,-20.6 -11.34,-13.89 -17.13,-32.18 -17.13,-54.63l0 -774.77 -252.31 0zm851.85 774.77l0 -821.76c0,-21.3 7.18,-39.12 21.3,-53.47 14.35,-14.58 31.94,-21.76 53.24,-21.76l490.51 0c48.38,0 72.45,20.37 72.45,61.34 0,40.51 -24.07,60.88 -72.45,60.88l-433.1 0 0 288.89 319.21 0c46.53,0 69.68,20.6 69.68,61.81 0,40.28 -23.15,60.41 -69.68,60.41l-319.21 0 0 316.67 455.09 0c49.3,0 74.07,20.14 74.07,60.41 0,41.2 -24.54,61.81 -73.84,61.81l-512.73 0c-21.3,0 -38.89,-7.18 -53.24,-21.3 -14.12,-14.35 -21.3,-32.18 -21.3,-53.94zm882.87 0l0 -821.76c0,-19.44 7.64,-36.57 22.92,-51.62 15.51,-14.81 33.33,-22.69 53.47,-23.61l272.91 0c99.54,0 177.08,27.08 231.94,81.25 55.09,54.17 82.64,125.93 82.64,214.81 0,64.59 -16.2,120.6 -48.84,167.83 -32.64,47.22 -77.54,81.94 -134.72,103.93l183.33 283.56c11.34,16.9 16.9,33.57 16.9,50.23 0,22.22 -6.71,39.58 -20.14,51.85 -13.43,12.5 -30.32,18.75 -50.46,18.75 -21.99,0 -40.28,-11.11 -54.63,-33.33l-217.82 -352.78 -204.17 0 0 310.88c0,21.99 -6.02,40.28 -17.83,54.17 -12.04,14.12 -28.24,21.06 -48.38,21.06 -21.3,0 -37.73,-6.94 -49.54,-20.6 -11.8,-13.89 -17.59,-32.18 -17.59,-54.63zm133.33 -433.1l225 0c57.41,0 100.7,-14.81 129.86,-44.44 29.17,-29.63 43.75,-70.83 43.75,-123.38 0,-54.63 -14.59,-97.45 -43.75,-128.01 -29.17,-30.56 -72.45,-45.83 -129.86,-45.83l-225 0 0 341.67zm-2320.71 1314.24c-35.42,-44.91 -53.13,-105.79 -53.13,-182.64 0,-76.85 17.71,-137.73 53.24,-182.64 35.42,-44.91 84.37,-67.36 146.76,-67.36 31.83,0 59.49,4.4 82.87,13.19 23.38,8.8 46.53,24.42 69.33,46.87 8.33,8.33 12.62,17.36 12.62,26.97 0,9.26 -3.7,17.24 -10.88,23.84 -7.29,6.59 -15.28,9.95 -24.07,9.95 -8.45,0 -15.97,-3.59 -22.8,-10.76 -29.17,-32.41 -64.81,-48.73 -107.06,-48.96 -30.56,0 -56.13,9.61 -76.62,28.82 -20.6,19.21 -34.95,42.36 -43.17,69.56 -8.1,27.08 -12.15,57.29 -12.15,90.63 0,33.45 4.05,63.54 12.15,90.62 8.22,26.97 22.57,50.12 43.17,69.33 20.49,19.21 46.07,28.82 76.62,28.82 42.01,0 77.78,-16.2 107.06,-48.61 7.06,-7.41 14.58,-11.11 22.8,-11.11 8.8,0 16.78,3.36 24.07,9.96 7.18,6.59 10.88,14.58 10.88,23.84 0,9.61 -4.28,18.63 -12.62,26.96 -22.57,22.46 -45.6,38.08 -68.98,46.88 -23.38,8.8 -51.16,13.19 -83.22,13.19 -62.39,0 -111.34,-22.45 -146.87,-67.36zm435.53 16.2c-30.56,-34.14 -45.83,-77.2 -45.83,-129.4 0,-52.2 15.28,-95.26 45.83,-129.4 30.56,-34.14 70.6,-51.16 120.14,-51.16 49.54,0 89.58,17.02 120.14,51.16 30.56,34.14 45.83,77.2 45.83,129.4 0,52.2 -15.28,95.26 -45.83,129.4 -30.56,34.14 -70.6,51.16 -120.14,51.16 -49.54,0 -89.58,-17.02 -120.14,-51.16zm45.14 -220.72c-18.98,22.45 -28.47,52.89 -28.47,91.32 0,38.43 9.49,68.87 28.47,91.32 18.98,22.45 43.98,33.68 75,33.68 31.02,0 56.02,-11.23 75,-33.68 18.98,-22.45 28.47,-52.89 28.47,-91.32 0,-38.43 -9.49,-68.87 -28.47,-91.32 -18.98,-22.45 -43.98,-33.68 -75,-33.68 -31.02,0 -56.02,11.23 -75,33.68z"/>
 </g>
</svg>
