<?xml version="1.0" encoding="UTF-8"?>
<!DOCTYPE svg PUBLIC "-//W3C//DTD SVG 1.1//EN" "http://www.w3.org/Graphics/SVG/1.1/DTD/svg11.dtd">
<!-- Creator: CorelDRAW 2020 (64-Bit) -->
<svg xmlns="http://www.w3.org/2000/svg" xml:space="preserve" width="3.33333in" height="3.33333in" version="1.1" style="shape-rendering:geometricPrecision; text-rendering:geometricPrecision; image-rendering:optimizeQuality; fill-rule:evenodd; clip-rule:evenodd"
viewBox="0 0 3333.33 3333.33"
 xmlns:xlink="http://www.w3.org/1999/xlink"
 xmlns:xodm="http://www.corel.com/coreldraw/odm/2003">
 <defs>
  <style type="text/css">
   <![CDATA[
    .fil0 {fill:#59D787}
    .fil1 {fill:white}
    .fil2 {fill:white;fill-rule:nonzero}
   ]]>
  </style>
 </defs>
 <g id="Layer_x0020_1">
  <metadata id="CorelCorpID_0Corel-Layer"/>
  <rect class="fil0" x="-0.01" y="-0.01" width="3333.34" height="3333.34"/>
  <path class="fil1" d="M-0 -0.01l3333.34 0 0 3333.34 -3333.34 0 0 -3333.34zm1666.67 66.67c883.66,0 1600,716.34 1600,1600 0,883.66 -716.34,1600 -1600,1600 -883.66,0 -1600,-716.34 -1600,-1600 0,-883.66 716.34,-1600 1600,-1600z"/>
  <g id="_2139550667280">
   <path class="fil2" d="M2616.77 856.51c-4.13,-75.66 -64.3,-135.82 -139.96,-139.95 -152.67,-8.34 -451.4,-0.22 -737.06,147.52 -145.62,75.32 -299.63,203.03 -422.54,350.37 -1.51,1.81 -2.99,3.64 -4.49,5.46l-278.93 21.55c-45.91,3.55 -86.81,27.61 -112.2,66.02l-190.3 287.83c-19.26,29.13 -22.32,65.58 -8.2,97.51 14.13,31.93 43.16,54.19 77.67,59.53l235 36.4c-0.83,4.57 -1.67,9.13 -2.43,13.7 -7.82,46.8 7.68,94.91 41.48,128.71l327.34 327.34c28.02,28.02 65.89,43.47 104.69,43.47 7.99,0 16.03,-0.66 24.02,-2 4.57,-0.76 9.13,-1.59 13.7,-2.43l36.4 235c5.35,34.5 27.6,63.54 59.53,77.67 13.28,5.88 27.34,8.78 41.34,8.78 19.65,-0 39.17,-5.72 56.18,-16.97l287.83 -190.3c38.41,-25.4 62.47,-66.29 66.01,-112.2l21.55 -278.93c1.82,-1.5 3.65,-2.98 5.46,-4.49 147.35,-122.91 275.06,-276.92 350.38,-422.54 147.76,-285.67 155.86,-584.41 147.53,-737.06zm-652.48 1462.12l-275.33 182.04 -35.48 -229.02c116.37,-34.22 231.48,-89.01 341.14,-162.42l-14.04 181.71c-0.87,11.33 -6.82,21.43 -16.3,27.7l0 -0zm-483.22 -139.04l-327.34 -327.34c-8.35,-8.36 -12.21,-20.09 -10.32,-31.4 9.73,-58.19 24.85,-113.59 43.57,-165.78l491.15 491.15c-62.68,22.45 -118.81,35.84 -165.67,43.68 -11.32,1.88 -23.05,-1.97 -31.4,-10.32l0 0zm-438.68 -826.85l181.7 -14.04c-73.41,109.66 -128.2,224.77 -162.42,341.13l-229.02 -35.47 182.04 -275.33c6.27,-9.48 16.37,-15.43 27.7,-16.3zm1005 577.67c-90.15,75.19 -177.65,129.58 -258.31,168.94l-555.11 -555.11c51.55,-105.29 114.47,-192.97 168.95,-258.29 113.74,-136.36 255.2,-253.99 388.12,-322.74 262.17,-135.61 538.39,-142.91 679.7,-135.22 18.7,1.02 33.58,15.9 34.6,34.61 7.7,141.32 0.39,417.53 -135.22,679.7 -68.74,132.91 -186.38,274.37 -322.73,388.11z"/>
   <path class="fil2" d="M2019.04 1593.16c71.43,-0 142.89,-27.2 197.28,-81.58 52.7,-52.7 81.71,-122.76 81.71,-197.28 0,-74.52 -29.02,-144.58 -81.71,-197.28 -108.78,-108.78 -285.78,-108.78 -394.56,0 -52.7,52.7 -81.72,122.76 -81.72,197.28 0,74.52 29.03,144.58 81.72,197.28 54.39,54.39 125.82,81.59 197.28,81.58zm-118.37 -397.23c32.63,-32.64 75.5,-48.96 118.37,-48.96 42.87,0 85.74,16.32 118.37,48.96 31.61,31.61 49.02,73.65 49.02,118.36 0,44.71 -17.41,86.75 -49.02,118.37 -65.27,65.27 -171.47,65.26 -236.74,0 -31.61,-31.62 -49.03,-73.65 -49.03,-118.37 0,-44.71 17.42,-86.75 49.03,-118.37z"/>
   <path class="fil2" d="M771.25 2283.96c14.28,0 28.56,-5.45 39.45,-16.35l182.19 -182.18c21.79,-21.79 21.79,-57.12 0,-78.91 -21.79,-21.79 -57.12,-21.79 -78.92,0l-182.18 182.18c-21.79,21.79 -21.79,57.12 0,78.91 10.89,10.9 25.17,16.35 39.46,16.35z"/>
   <path class="fil2" d="M1159.85 2173.48c-21.79,-21.79 -57.12,-21.79 -78.91,0l-350.26 350.26c-21.79,21.79 -21.79,57.12 0,78.91 10.9,10.9 25.17,16.34 39.46,16.34 14.28,0 28.56,-5.44 39.46,-16.35l350.26 -350.26c21.8,-21.79 21.8,-57.12 0,-78.91l-0 0z"/>
   <path class="fil2" d="M1247.89 2340.44l-182.18 182.19c-21.79,21.79 -21.79,57.12 0,78.91 10.9,10.89 25.18,16.35 39.46,16.35 14.28,0 28.56,-5.45 39.45,-16.35l182.19 -182.19c21.79,-21.79 21.79,-57.12 0,-78.91 -21.79,-21.79 -57.12,-21.79 -78.91,0l-0 0z"/>
  </g>
 </g>
</svg>
